<mxfile host="app.diagrams.net" modified="2023-08-16T14:10:25.402Z" agent="Mozilla/5.0 (Windows NT 10.0; Win64; x64) AppleWebKit/537.36 (KHTML, like Gecko) Chrome/115.0.0.0 Safari/537.36" etag="sgiAk865zzs5xJnMJuVk" version="21.6.8" type="github">
  <diagram name="Page-1" id="42789a77-a242-8287-6e28-9cd8cfd52e62">
    <mxGraphModel dx="2074" dy="768" grid="1" gridSize="10" guides="1" tooltips="1" connect="1" arrows="1" fold="1" page="1" pageScale="1" pageWidth="1100" pageHeight="850" background="none" math="0" shadow="0">
      <root>
        <mxCell id="0" />
        <mxCell id="1" parent="0" />
        <mxCell id="1ea317790d2ca983-22" value="&lt;font style=&quot;font-size: 12px;&quot;&gt;&amp;gt;= 730&lt;/font&gt;" style="edgeStyle=none;rounded=1;html=1;labelBackgroundColor=none;startArrow=none;startFill=0;startSize=5;endArrow=classicThin;endFill=1;endSize=5;jettySize=auto;orthogonalLoop=1;strokeColor=#B3B3B3;strokeWidth=1;fontFamily=Verdana;fontSize=12;exitX=0.5;exitY=1;exitDx=0;exitDy=0;entryX=0.5;entryY=0;entryDx=0;entryDy=0;" parent="1" source="DD0N1FO4O5zKS0WBThrT-1" target="DD0N1FO4O5zKS0WBThrT-6" edge="1">
          <mxGeometry relative="1" as="geometry">
            <mxPoint x="580" y="260" as="targetPoint" />
            <Array as="points" />
          </mxGeometry>
        </mxCell>
        <UserObject label="" tooltip="aaaaaaaaaa" id="DD0N1FO4O5zKS0WBThrT-28">
          <mxCell style="edgeStyle=none;shape=connector;rounded=1;orthogonalLoop=1;jettySize=auto;html=1;labelBackgroundColor=none;strokeColor=#B3B3B3;strokeWidth=1;fontFamily=Verdana;fontSize=12;fontColor=default;startArrow=none;startFill=0;endArrow=classicThin;endFill=1;startSize=5;endSize=5;" edge="1" parent="1" source="DD0N1FO4O5zKS0WBThrT-1" target="DD0N1FO4O5zKS0WBThrT-27">
            <mxGeometry relative="1" as="geometry">
              <mxPoint x="69.99526315789456" y="166.31578947368416" as="sourcePoint" />
            </mxGeometry>
          </mxCell>
        </UserObject>
        <mxCell id="DD0N1FO4O5zKS0WBThrT-1" value="huidige leeftijd" style="rhombus;whiteSpace=wrap;html=1;" vertex="1" parent="1">
          <mxGeometry x="460" y="30" width="100" height="80" as="geometry" />
        </mxCell>
        <mxCell id="DD0N1FO4O5zKS0WBThrT-6" value="niets plannen" style="rounded=1;whiteSpace=wrap;html=1;" vertex="1" parent="1">
          <mxGeometry x="720" y="240" width="120" height="60" as="geometry" />
        </mxCell>
        <mxCell id="DD0N1FO4O5zKS0WBThrT-7" value="hoogste rangnummer" style="rhombus;whiteSpace=wrap;html=1;" vertex="1" parent="1">
          <mxGeometry x="340" y="180" width="110" height="80" as="geometry" />
        </mxCell>
        <mxCell id="DD0N1FO4O5zKS0WBThrT-11" value="" style="endArrow=classic;html=1;rounded=1;labelBackgroundColor=none;strokeColor=#B3B3B3;strokeWidth=1;fontFamily=Verdana;fontSize=12;fontColor=default;startSize=5;endSize=5;shape=connector;exitX=0.5;exitY=1;exitDx=0;exitDy=0;entryX=0.5;entryY=0;entryDx=0;entryDy=0;" edge="1" parent="1" source="DD0N1FO4O5zKS0WBThrT-1" target="DD0N1FO4O5zKS0WBThrT-7">
          <mxGeometry relative="1" as="geometry">
            <mxPoint x="320" y="120" as="sourcePoint" />
            <mxPoint x="420" y="120" as="targetPoint" />
          </mxGeometry>
        </mxCell>
        <mxCell id="DD0N1FO4O5zKS0WBThrT-12" value="&amp;lt; 730" style="edgeLabel;resizable=0;html=1;align=center;verticalAlign=middle;fontFamily=Verdana;fontSize=12;fontColor=default;" connectable="0" vertex="1" parent="DD0N1FO4O5zKS0WBThrT-11">
          <mxGeometry relative="1" as="geometry" />
        </mxCell>
        <mxCell id="DD0N1FO4O5zKS0WBThrT-15" value="" style="endArrow=classic;html=1;rounded=1;labelBackgroundColor=none;strokeColor=#B3B3B3;strokeWidth=1;fontFamily=Verdana;fontSize=12;fontColor=default;startSize=5;endSize=5;shape=connector;exitX=0.5;exitY=1;exitDx=0;exitDy=0;" edge="1" parent="1" source="DD0N1FO4O5zKS0WBThrT-7" target="DD0N1FO4O5zKS0WBThrT-6">
          <mxGeometry relative="1" as="geometry">
            <mxPoint x="140" y="450" as="sourcePoint" />
            <mxPoint x="240" y="450" as="targetPoint" />
          </mxGeometry>
        </mxCell>
        <mxCell id="DD0N1FO4O5zKS0WBThrT-16" value="4" style="edgeLabel;resizable=0;html=1;align=center;verticalAlign=middle;fontFamily=Verdana;fontSize=12;fontColor=default;" connectable="0" vertex="1" parent="DD0N1FO4O5zKS0WBThrT-15">
          <mxGeometry relative="1" as="geometry" />
        </mxCell>
        <mxCell id="DD0N1FO4O5zKS0WBThrT-17" value="" style="endArrow=classic;html=1;rounded=1;labelBackgroundColor=none;strokeColor=#B3B3B3;strokeWidth=1;fontFamily=Verdana;fontSize=12;fontColor=default;startSize=5;endSize=5;shape=connector;exitX=0.5;exitY=1;exitDx=0;exitDy=0;entryX=0.5;entryY=0;entryDx=0;entryDy=0;" edge="1" parent="1" source="DD0N1FO4O5zKS0WBThrT-7" target="DD0N1FO4O5zKS0WBThrT-21">
          <mxGeometry relative="1" as="geometry">
            <mxPoint x="120" y="500" as="sourcePoint" />
            <mxPoint x="220" y="500" as="targetPoint" />
          </mxGeometry>
        </mxCell>
        <mxCell id="DD0N1FO4O5zKS0WBThrT-18" value="null" style="edgeLabel;resizable=0;html=1;align=center;verticalAlign=middle;fontFamily=Verdana;fontSize=12;fontColor=default;" connectable="0" vertex="1" parent="DD0N1FO4O5zKS0WBThrT-17">
          <mxGeometry relative="1" as="geometry" />
        </mxCell>
        <mxCell id="DD0N1FO4O5zKS0WBThrT-19" value="" style="endArrow=classic;html=1;rounded=1;labelBackgroundColor=none;strokeColor=#B3B3B3;strokeWidth=1;fontFamily=Verdana;fontSize=12;fontColor=default;startSize=5;endSize=5;shape=connector;exitX=0.5;exitY=1;exitDx=0;exitDy=0;entryX=0.5;entryY=0;entryDx=0;entryDy=0;" edge="1" parent="1" source="DD0N1FO4O5zKS0WBThrT-7" target="DD0N1FO4O5zKS0WBThrT-22">
          <mxGeometry relative="1" as="geometry">
            <mxPoint x="110" y="550" as="sourcePoint" />
            <mxPoint x="370" y="390" as="targetPoint" />
          </mxGeometry>
        </mxCell>
        <mxCell id="DD0N1FO4O5zKS0WBThrT-20" value="1, 2, 3" style="edgeLabel;resizable=0;html=1;align=center;verticalAlign=middle;fontFamily=Verdana;fontSize=12;fontColor=default;" connectable="0" vertex="1" parent="DD0N1FO4O5zKS0WBThrT-19">
          <mxGeometry relative="1" as="geometry" />
        </mxCell>
        <mxCell id="DD0N1FO4O5zKS0WBThrT-21" value="" style="rhombus;whiteSpace=wrap;html=1;fontFamily=Verdana;fontSize=12;fontColor=default;" vertex="1" parent="1">
          <mxGeometry x="240" y="390" width="80" height="80" as="geometry" />
        </mxCell>
        <mxCell id="DD0N1FO4O5zKS0WBThrT-22" value="" style="rhombus;whiteSpace=wrap;html=1;fontFamily=Verdana;fontSize=12;fontColor=default;" vertex="1" parent="1">
          <mxGeometry x="565" y="390" width="80" height="80" as="geometry" />
        </mxCell>
        <mxCell id="DD0N1FO4O5zKS0WBThrT-27" value="" style="rhombus;whiteSpace=wrap;html=1;fontFamily=Verdana;fontSize=12;fontColor=default;" vertex="1" parent="1">
          <mxGeometry x="187.89" y="150" width="80" height="80" as="geometry" />
        </mxCell>
      </root>
    </mxGraphModel>
  </diagram>
</mxfile>
